<svg xmlns="http://www.w3.org/2000/svg" xmlns:xlink="http://www.w3.org/1999/xlink" version="1.1" id="Isolation_Mode" x="0px" y="0px" viewBox="0 0 5.47 13.51" style="enable-background:new 0 0 5.47 13.51;" xml:space="preserve">
<style type="text/css">
	.st0{fill:#ffffff;}
</style>
<g>
	<path class="st0" d="M4.78,7.27c-0.16,0-0.32-0.08-0.42-0.22L0.28,0.92C0.12,0.69,0.19,0.38,0.42,0.23   c0.23-0.15,0.54-0.09,0.69,0.14l4.08,6.12c0.15,0.23,0.09,0.54-0.14,0.69C4.97,7.24,4.87,7.27,4.78,7.27z"/>
	<path class="st0" d="M4.78,6.27c0.1,0,0.19,0.03,0.28,0.08c0.23,0.15,0.29,0.46,0.14,0.69l-4.08,6.12   c-0.15,0.23-0.47,0.29-0.69,0.14c-0.23-0.15-0.29-0.46-0.14-0.69l4.08-6.12C4.46,6.35,4.61,6.27,4.78,6.27z"/>
</g>
</svg>