<svg id="Layer_1" data-name="Layer 1" xmlns="http://www.w3.org/2000/svg" viewBox="0 0 411.44 74.26"><defs><style>.cls-1{fill:#231f20;}</style></defs><title>codepen-logo</title><path class="cls-1" d="M25.86,18.23A18.83,18.83,0,0,1,38,22.66l4.47-5.33a25.86,25.86,0,1,0,0,39.59L38,51.59A18.89,18.89,0,1,1,25.86,18.23Z"/><path class="cls-1" d="M169,12.76H155.07a3.48,3.48,0,0,0-3.48,3.48V58a3.48,3.48,0,0,0,3.48,3.48H169a24.37,24.37,0,1,0,0-48.73Zm0,41.77H158.55V19.72H169a17.41,17.41,0,1,1,0,34.81Z"/><path class="cls-1" d="M212.21,16.24V58a3.48,3.48,0,0,0,3.48,3.48h29v-7H219.17V40.61h16.24v-7H219.17V19.72h25.52v-7h-29A3.48,3.48,0,0,0,212.21,16.24Z"/><path class="cls-1" d="M317.57,16.24V58a3.48,3.48,0,0,0,3.48,3.48h29v-7H324.53V40.61h16.24v-7H324.53V19.72h25.53v-7h-29A3.48,3.48,0,0,0,317.57,16.24Z"/><path class="cls-1" d="M284.44,12.76H269.36a3.48,3.48,0,0,0-3.48,3.48V61.49h7V40.61h11.6a13.93,13.93,0,1,0,0-27.85Zm0,20.89h-11.6V19.72h11.6a7,7,0,0,1,0,13.93Z"/><path class="cls-1" d="M404.48,12.76V48.4L375.82,14a3.47,3.47,0,0,0-6.15,2.22V61.49h7V25.86l28.65,34.38A3.48,3.48,0,0,0,411.44,58V12.76Z"/><path class="cls-1" d="M131.82,25.26l-.06-.27a.88.88,0,0,0,0-.15c0-.08-.05-.16-.08-.23s0-.11-.07-.16l-.11-.21-.09-.15-.14-.19a.76.76,0,0,0-.11-.14,1.29,1.29,0,0,0-.16-.17l-.12-.13-.18-.15-.15-.11-.05,0L96.51.54A3.17,3.17,0,0,0,93,.54L59,23.16l-.05,0-.14.11-.18.15a.8.8,0,0,0-.13.13,1.29,1.29,0,0,0-.16.17,1.71,1.71,0,0,0-.11.14,1.27,1.27,0,0,0-.13.19.6.6,0,0,0-.09.15,2.12,2.12,0,0,0-.11.21.77.77,0,0,0-.07.16,1.57,1.57,0,0,0-.09.23.88.88,0,0,1-.05.15,2.56,2.56,0,0,0,0,.27l0,.14a3,3,0,0,0,0,.42V48.44a3,3,0,0,0,0,.42l0,.14c0,.08,0,.17,0,.26a1.42,1.42,0,0,1,.05.16,2.18,2.18,0,0,0,.09.23l.07.16A2.12,2.12,0,0,0,58,50a.42.42,0,0,0,.09.14,1.37,1.37,0,0,0,.13.2l.11.14.16.17.13.12a1.37,1.37,0,0,0,.18.16l.14.11.05,0L93,73.72a3.17,3.17,0,0,0,3.54,0l33.94-22.63.05,0,.15-.11.18-.16.12-.12.16-.17a1.34,1.34,0,0,0,.11-.14c.05-.06.09-.13.14-.2l.09-.14.11-.21c0-.06.05-.11.07-.16l.08-.23a.75.75,0,0,0,0-.16l.06-.26a.59.59,0,0,1,0-.14,3,3,0,0,0,0-.42V25.82a3,3,0,0,0,0-.42A.68.68,0,0,1,131.82,25.26ZM94.74,44.68,83.46,37.13l11.28-7.55L106,37.13ZM91.55,24,77.72,33.29,66.55,25.82l25-16.67ZM72,37.13l-8,5.34V31.79ZM77.72,41l13.83,9.25V65.1l-25-16.66Zm20.21,9.25L111.77,41l11.16,7.47-25,16.66ZM117.5,37.13l8-5.34V42.47Zm-5.73-3.84L97.93,24V9.15l25,16.67Z"/></svg>